<svg xmlns="http://www.w3.org/2000/svg" width="1200" height="300" viewBox="0 0 1200 300"><rect width="1200" height="300" fill="#15003e"/><line x1="1038.99" y1="135.66" x2="1004.65" y2="170" fill="none" stroke="#3e00ff" stroke-linecap="round" stroke-miterlimit="10" stroke-width="2"/><line x1="1072.23" y1="135.66" x2="1037.89" y2="170" fill="none" stroke="#25e899" stroke-linecap="round" stroke-miterlimit="10" stroke-width="2"/><line x1="1099.93" y1="135.66" x2="1065.58" y2="170" fill="none" stroke="#ffce08" stroke-linecap="round" stroke-miterlimit="10" stroke-width="2"/><line x1="1127.63" y1="135.66" x2="1093.28" y2="170" fill="none" stroke="#8e2abe" stroke-linecap="round" stroke-miterlimit="10" stroke-width="2"/><line x1="1152" y1="135.66" x2="1117.66" y2="170" fill="none" stroke="#f9006c" stroke-linecap="round" stroke-miterlimit="10" stroke-width="2"/><line x1="958" y1="34" x2="896" y2="96" fill="none" stroke="#3e00ff" stroke-linecap="round" stroke-miterlimit="10" stroke-width="4"/><line x1="1018" y1="34" x2="956" y2="96" fill="none" stroke="#25e899" stroke-linecap="round" stroke-miterlimit="10" stroke-width="4"/><line x1="1068" y1="34" x2="1006" y2="96" fill="none" stroke="#ffce08" stroke-linecap="round" stroke-miterlimit="10" stroke-width="4"/><line x1="1118" y1="34" x2="1056" y2="96" fill="none" stroke="#8e2abe" stroke-linecap="round" stroke-miterlimit="10" stroke-width="4"/><line x1="1162" y1="34" x2="1100" y2="96" fill="none" stroke="#f9006c" stroke-linecap="round" stroke-miterlimit="10" stroke-width="4"/><line x1="412.57" y1="106" x2="293.6" y2="224.97" fill="none" stroke="#3e00ff" stroke-linecap="round" stroke-miterlimit="10" stroke-width="10"/><line x1="527.69" y1="106" x2="408.73" y2="224.97" fill="none" stroke="#25e899" stroke-linecap="round" stroke-miterlimit="10" stroke-width="10"/><line x1="623.63" y1="106" x2="504.67" y2="224.97" fill="none" stroke="#ffce08" stroke-linecap="round" stroke-miterlimit="10" stroke-width="10"/><line x1="719.57" y1="106" x2="600.61" y2="224.97" fill="none" stroke="#8e2abe" stroke-linecap="round" stroke-miterlimit="10" stroke-width="10"/><line x1="804" y1="106" x2="685.03" y2="224.97" fill="none" stroke="#f9006c" stroke-linecap="round" stroke-miterlimit="10" stroke-width="10"/><circle cx="196" cy="98" r="2" fill="#25e899"/><circle cx="214" cy="100" r="2" fill="#25e899"/><circle cx="196" cy="122" r="2" fill="#25e899"/><circle cx="214" cy="124" r="2" fill="#25e899"/><circle cx="196" cy="146" r="2" fill="#25e899"/><circle cx="214" cy="148" r="2" fill="#25e899"/><circle cx="196" cy="170" r="2" fill="#25e899"/><circle cx="214" cy="172" r="2" fill="#25e899"/></svg>